<?xml version="1.0" encoding="UTF-8"?>
<svg viewBox="0 0 3600 3600" xmlns="http://www.w3.org/2000/svg">
 <rect x="-360" y="-360" width="4320" height="4320" fill="#007dc2"/>
 <path d="m1386.7 2692.7h826.56c264.5 0 479.41-214.91 479.41-479.41v-826.56c0-264.5-214.91-479.41-479.41-479.41h-826.56c-264.5 0-479.41 214.91-479.41 479.41v826.56c2.3633 264.5 214.91 479.41 479.41 479.41zm758.08-479.41c-7.0859 7.0859-16.531 7.0859-23.617 2.3633-94.465-85.02-314.09 2.3633-314.09 2.3633-2.3633 0-4.7227 2.3633-7.0859 2.3633-7.0859 0-14.168-4.7227-16.531-9.4453-4.7227-9.4453 0-18.895 9.4453-21.254 9.4453-4.7227 240.88-96.824 351.88 2.3633 7.0859 4.7148 7.0859 14.164 0.003906 21.246zm-670.7-146.42c-2.3633 0-4.7227 2.3633-7.0859 2.3633-7.0859 0-14.168-4.7227-16.531-9.4453-4.7227-9.4453 0-18.895 9.4453-21.254 9.4453-4.7227 240.88-96.824 351.88 2.3633 7.0859 7.0859 7.0859 16.531 2.3633 23.617-7.0859 7.0859-16.531 7.0859-23.617 2.3633-96.82-89.75-314.09-2.3711-316.45-0.007813zm1003.7-4.7227c-7.0859 7.0859-16.531 7.0859-23.617 2.3633-94.465-85.02-314.09 2.3633-314.09 2.3633-2.3633 0-4.7227 2.3633-7.0859 2.3633-7.0859 0-14.168-4.7227-16.531-9.4453-4.7227-9.4453 0-18.895 9.4453-21.254 9.4453-4.7227 240.88-96.824 351.88 2.3633 7.0898 2.3516 7.0898 14.16 0.003906 21.246zm0-484.13c7.0859 7.0859 7.0859 16.531 2.3633 23.617-7.0859 7.0859-16.531 7.0859-23.617 2.3633-94.465-85.02-314.09 2.3633-314.09 2.3633-2.3633 0-4.7227 2.3633-7.0859 2.3633-7.0859 0-14.168-4.7227-16.531-9.4453-4.7227-9.4453 0-18.895 9.4453-21.254 7.0859-7.0938 238.52-99.195 349.52-0.007812zm-684.86-155.87c9.4453-4.7227 240.88-96.824 351.88 2.3633 7.0859 7.0859 7.0859 16.531 2.3633 23.617-7.0859 7.0859-16.531 7.0859-23.617 2.3633-94.465-85.02-314.09 2.3633-314.09 2.3633-2.3633 0-4.7227 2.3633-7.0859 2.3633-7.0859 0-14.168-4.7227-16.531-9.4453-4.7227-9.457 0-18.902 7.0859-23.625zm18.891 155.87c7.0859 7.0859 7.0859 16.531 2.3633 23.617-7.0859 7.0859-16.531 7.0859-23.617 2.3633-94.465-85.02-314.09 2.3633-314.09 2.3633-2.3633 0-4.7227 2.3633-7.0859 2.3633-7.0859 0-14.168-4.7227-16.531-9.4453-4.7227-9.4453 0-18.895 9.4453-21.254 7.0859-7.0938 238.52-99.195 349.52-0.007812zm-684.87-155.87c9.4453-4.7227 240.88-96.824 351.88 2.3633 7.0859 7.0859 7.0859 16.531 2.3633 23.617-7.0859 7.0859-16.531 7.0859-23.617 2.3633-94.465-85.02-314.09 2.3633-314.09 2.3633-2.3633 0-4.7227 2.3633-7.0859 2.3633-7.0859 0-14.168-4.7227-16.531-9.4453-4.7188-9.457 0.003906-18.902 7.0859-23.625zm0 307.01c9.4453-4.7227 229.07-92.102 342.43-4.7227 44.871-16.531 231.44-77.934 332.99 0 44.871-16.531 231.44-77.934 332.99 0 44.871-16.531 243.25-82.656 340.07 7.0859 7.0859 7.0859 7.0859 16.531 2.3633 23.617-7.0859 7.0859-16.531 7.0859-23.617 2.3633-94.465-85.02-314.09 2.3633-314.09 2.3633h-2.3633-2.3633-4.7227c-2.3633 0-2.3633-2.3633-4.7227-2.3633-94.465-85.02-314.09 2.3633-314.09 2.3633h-2.3633-2.3633-4.7227c-2.3633 0-2.3633-2.3633-4.7227-2.3633-94.465-85.02-314.09 2.3633-314.09 2.3633h-2.3633-2.3633-4.7227c-2.3633 0-2.3633-2.3633-4.7227-2.3633-94.465-85.02-314.09 2.3633-314.09 2.3633-2.3633 0-4.7227 2.3633-7.0859 2.3633-7.0859 0-14.168-4.7227-16.531-9.4453-16.523-11.816-11.801-21.262-4.7188-23.625zm0 153.5c9.4453-4.7227 229.07-92.102 342.43-4.7227 44.871-16.531 231.44-77.934 332.99 0 44.871-16.531 231.44-77.934 332.99 0 44.871-16.531 243.25-82.656 340.07 7.0859 7.0859 7.0859 7.0859 16.531 2.3633 23.617-7.0859 7.0859-16.531 7.0859-23.617 2.3633-94.465-85.02-314.09 2.3633-314.09 2.3633h-2.3633-2.3633-4.7227c-2.3633 0-2.3633-2.3633-4.7227-2.3633-94.465-85.02-314.09 2.3633-314.09 2.3633h-2.3633-2.3633-4.7227c-2.3633 0-2.3633-2.3633-4.7227-2.3633-94.465-85.02-314.09 2.3633-314.09 2.3633h-2.3633-2.3633-4.7227c-2.3633 0-2.3633-2.3633-4.7227-2.3633-94.465-85.02-314.09 2.3633-314.09 2.3633-2.3633 0-4.7227 2.3633-7.0859 2.3633-7.0859 0-14.168-4.7227-16.531-9.4453-16.523-11.816-11.801-21.262-4.7188-23.625zm0 304.65c9.4453-4.7227 240.88-96.824 351.88 2.3633 7.0859 7.0859 7.0859 16.531 2.3633 23.617-7.0859 7.0859-16.531 7.0859-23.617 2.3633-94.465-85.02-314.09 2.3633-314.09 2.3633-2.3633 0-4.7227 2.3633-7.0859 2.3633-7.0859 0-14.168-4.7227-16.531-9.4453-4.7188-9.457 0.003906-21.262 7.0859-23.625z" fill="#fff"/>
</svg>
